# This file uses centimeters as units for non-parametric coordinates.

v 0.073223 -1.000000 0.426777
v 0.426777 -1.000000 0.073223
v 0.073223 1.000000 0.426777
v 0.426777 1.000000 0.073223
v 0.073223 -1.000000 0.426777
v 0.426777 -1.000000 0.073223
v 0.073223 1.000000 0.426777
v 0.426777 1.000000 0.073223
v 0.073223 -1.000000 0.426777
v 0.426777 -1.000000 0.073223
v 0.073223 1.000000 0.426777
v 0.426777 1.000000 0.073223
v 0.073223 -1.000000 0.073223
v 0.426777 -1.000000 0.426777
v 0.073223 1.000000 0.073223
v 0.426777 1.000000 0.426777
v -0.426777 -1.000000 0.073223
v -0.073223 -1.000000 0.426777
v -0.426777 1.000000 0.073223
v -0.073223 1.000000 0.426777
v -0.426777 -1.000000 0.426777
v -0.073223 -1.000000 0.073223
v -0.426777 1.000000 0.426777
v -0.073223 1.000000 0.073223
v -0.426777 -1.000000 0.426777
v -0.073223 -1.000000 0.073223
v -0.426777 1.000000 0.426777
v -0.073223 1.000000 0.073223
v -0.426777 -1.000000 0.426777
v -0.073223 -1.000000 0.073223
v -0.426777 1.000000 0.426777
v -0.073223 1.000000 0.073223
v 0.073223 -1.000000 -0.426777
v 0.426777 -1.000000 -0.073223
v 0.073223 1.000000 -0.426777
v 0.426777 1.000000 -0.073223
v 0.073223 -1.000000 -0.073223
v 0.426777 -1.000000 -0.426777
v 0.073223 1.000000 -0.073223
v 0.426777 1.000000 -0.426777
v 0.073223 -1.000000 -0.073223
v 0.426777 -1.000000 -0.426777
v 0.073223 1.000000 -0.073223
v 0.426777 1.000000 -0.426777
v 0.073223 -1.000000 -0.073223
v 0.426777 -1.000000 -0.426777
v 0.073223 1.000000 -0.073223
v 0.426777 1.000000 -0.426777
v -0.426777 -1.000000 -0.426777
v -0.073223 -1.000000 -0.073223
v -0.426777 1.000000 -0.426777
v -0.073223 1.000000 -0.073223
v -0.426777 -1.000000 -0.073223
v -0.073223 -1.000000 -0.426777
v -0.426777 1.000000 -0.073223
v -0.073223 1.000000 -0.426777
v -0.426777 -1.000000 -0.073223
v -0.073223 -1.000000 -0.426777
v -0.426777 1.000000 -0.073223
v -0.073223 1.000000 -0.426777
v -0.426777 -1.000000 -0.073223
v -0.073223 -1.000000 -0.426777
v -0.426777 1.000000 -0.073223
v -0.073223 1.000000 -0.426777
vt 1.000564 0.249926
vt 1.000564 0.500020
vt 0.500564 0.249926
vt 0.500564 0.499759
vt 1.000564 0.249926
vt 0.500564 0.249926
vt 1.000564 0.500020
vt 0.500564 0.499759
vt 1.000564 0.249926
vt 1.000564 0.500020
vt 0.500564 0.249926
vt 0.500564 0.499759
vt 1.000564 0.249926
vt 0.500564 0.249926
vt 1.000564 0.500020
vt 0.500564 0.499759
vt 1.000564 -0.000074
vt 0.500564 -0.000074
vt 1.000564 0.249926
vt 0.500564 0.249926
vt 1.000564 -0.000074
vt 1.000564 0.249926
vt 0.500564 -0.000074
vt 0.500564 0.249926
vt 1.000564 -0.000074
vt 0.500564 -0.000074
vt 1.000564 0.249926
vt 0.500564 0.249926
vt 1.000564 -0.000074
vt 1.000564 0.249926
vt 0.500564 -0.000074
vt 0.500564 0.249926
vt 1.000564 -0.000074
vt 0.500564 -0.000074
vt 1.000564 0.249926
vt 0.500564 0.249926
vt 1.000564 -0.000074
vt 1.000564 0.249926
vt 0.500564 -0.000074
vt 0.500564 0.249926
vt 1.000564 -0.000074
vt 0.500564 -0.000074
vt 1.000564 0.249926
vt 0.500564 0.249926
vt 1.000564 -0.000074
vt 1.000564 0.249926
vt 0.500564 -0.000074
vt 0.500564 0.249926
vt 1.000564 0.249926
vt 0.500564 0.249926
vt 1.000564 0.500020
vt 0.500564 0.499759
vt 1.000564 0.249926
vt 1.000564 0.500020
vt 0.500564 0.249926
vt 0.500564 0.499759
vt 1.000564 0.249926
vt 0.500564 0.249926
vt 1.000564 0.500020
vt 0.500564 0.499759
vt 1.000564 0.249926
vt 1.000564 0.500020
vt 0.500564 0.249926
vt 0.500564 0.499759
vn 0.707107 0.000000 0.707107
vn 0.707107 0.000000 0.707107
vn 0.707107 0.000000 0.707107
vn 0.707107 0.000000 0.707107
vn 0.707107 0.000000 0.707107
vn 0.707107 0.000000 0.707107
vn -0.707107 0.000000 -0.707107
vn -0.707107 0.000000 -0.707107
vn -0.707107 0.000000 -0.707107
vn -0.707107 0.000000 -0.707107
vn -0.707107 0.000000 -0.707107
vn -0.707107 0.000000 -0.707107
vn 0.707107 0.000000 0.707107
vn 0.707107 0.000000 0.707107
vn 0.707107 0.000000 0.707107
vn 0.707107 0.000000 0.707107
vn 0.707107 0.000000 0.707107
vn 0.707107 0.000000 0.707107
vn 0.707107 0.000000 -0.707107
vn 0.707107 0.000000 -0.707107
vn 0.707107 0.000000 -0.707107
vn 0.707107 0.000000 -0.707107
vn 0.707107 0.000000 -0.707107
vn 0.707107 0.000000 -0.707107
vn 0.707107 0.000000 -0.707107
vn 0.707107 0.000000 -0.707107
vn 0.707107 0.000000 -0.707107
vn 0.707107 0.000000 -0.707107
vn 0.707107 0.000000 -0.707107
vn 0.707107 0.000000 -0.707107
vn 0.707107 0.000000 0.707107
vn 0.707107 0.000000 0.707107
vn 0.707107 0.000000 0.707107
vn 0.707107 0.000000 0.707107
vn 0.707107 0.000000 0.707107
vn 0.707107 0.000000 0.707107
vn -0.707107 0.000000 -0.707107
vn -0.707107 0.000000 -0.707107
vn -0.707107 0.000000 -0.707107
vn -0.707107 0.000000 -0.707107
vn -0.707107 0.000000 -0.707107
vn -0.707107 0.000000 -0.707107
vn 0.707107 0.000000 0.707107
vn 0.707107 0.000000 0.707107
vn 0.707107 0.000000 0.707107
vn 0.707107 0.000000 0.707107
vn 0.707107 0.000000 0.707107
vn 0.707107 0.000000 0.707107
vn 0.707107 0.000000 -0.707107
vn 0.707107 0.000000 -0.707107
vn 0.707107 0.000000 -0.707107
vn 0.707107 0.000000 -0.707107
vn 0.707107 0.000000 -0.707107
vn 0.707107 0.000000 -0.707107
vn 0.707107 0.000000 0.707107
vn 0.707107 0.000000 0.707107
vn 0.707107 0.000000 0.707107
vn 0.707107 0.000000 0.707107
vn 0.707107 0.000000 0.707107
vn 0.707107 0.000000 0.707107
vn -0.707107 0.000000 -0.707107
vn -0.707107 0.000000 -0.707107
vn -0.707107 0.000000 -0.707107
vn -0.707107 0.000000 -0.707107
vn -0.707107 0.000000 -0.707107
vn -0.707107 0.000000 -0.707107
vn 0.707107 0.000000 0.707107
vn 0.707107 0.000000 0.707107
vn 0.707107 0.000000 0.707107
vn 0.707107 0.000000 0.707107
vn 0.707107 0.000000 0.707107
vn 0.707107 0.000000 0.707107
vn 0.707107 0.000000 -0.707107
vn 0.707107 0.000000 -0.707107
vn 0.707107 0.000000 -0.707107
vn 0.707107 0.000000 -0.707107
vn 0.707107 0.000000 -0.707107
vn 0.707107 0.000000 -0.707107
vn 0.707107 0.000000 0.707107
vn 0.707107 0.000000 0.707107
vn 0.707107 0.000000 0.707107
vn 0.707107 0.000000 0.707107
vn 0.707107 0.000000 0.707107
vn 0.707107 0.000000 0.707107
vn -0.707107 0.000000 -0.707107
vn -0.707107 0.000000 -0.707107
vn -0.707107 0.000000 -0.707107
vn -0.707107 0.000000 -0.707107
vn -0.707107 0.000000 -0.707107
vn -0.707107 0.000000 -0.707107
vn 0.707107 0.000000 0.707107
vn 0.707107 0.000000 0.707107
vn 0.707107 0.000000 0.707107
vn 0.707107 0.000000 0.707107
vn 0.707107 0.000000 0.707107
vn 0.707107 0.000000 0.707107
f 1/1/1 2/2/2 3/3/3
f 3/3/4 2/2/5 4/4/6
f 5/5/7 7/6/8 6/7/9
f 6/7/10 7/6/11 8/8/12
f 9/9/13 10/10/14 11/11/15
f 11/11/16 10/10/17 12/12/18
f 13/13/19 15/14/20 14/15/21
f 14/15/22 15/14/23 16/16/24
f 17/17/25 19/18/26 18/19/27
f 18/19/28 19/18/29 20/20/30
f 21/21/31 22/22/32 23/23/33
f 23/23/34 22/22/35 24/24/36
f 25/25/37 27/26/38 26/27/39
f 26/27/40 27/26/41 28/28/42
f 29/29/43 30/30/44 31/31/45
f 31/31/46 30/30/47 32/32/48
f 33/33/49 35/34/50 34/35/51
f 34/35/52 35/34/53 36/36/54
f 37/37/55 38/38/56 39/39/57
f 39/39/58 38/38/59 40/40/60
f 41/41/61 43/42/62 42/43/63
f 42/43/64 43/42/65 44/44/66
f 45/45/67 46/46/68 47/47/69
f 47/47/70 46/46/71 48/48/72
f 49/49/73 51/50/74 50/51/75
f 50/51/76 51/50/77 52/52/78
f 53/53/79 54/54/80 55/55/81
f 55/55/82 54/54/83 56/56/84
f 57/57/85 59/58/86 58/59/87
f 58/59/88 59/58/89 60/60/90
f 61/61/91 62/62/92 63/63/93
f 63/63/94 62/62/95 64/64/96
